<svg xmlns="http://www.w3.org/2000/svg" width="600" height="400" viewBox="0 0 600 400"><rect width="100%" height="100%" fill="#EFEFEF"/><path fill="#808080" d="M145.085 209.265h22.54l-8.62-23.57q-.64-1.57-1.33-3.73-.68-2.15-1.37-4.65-.63 2.5-1.32 4.68-.69 2.18-1.32 3.79l-8.58 23.48Zm17.98-44.1 27.84 70.85h-10.2q-1.71 0-2.79-.86t-1.62-2.13l-5.29-14.45h-29.35l-5.29 14.45q-.39 1.13-1.52 2.06-1.13.93-2.79.93h-10.29l27.88-70.85h13.42Zm66.69 26.01-2.74 4.37q-.49.78-1.03 1.1-.54.32-1.37.32-.88 0-1.89-.49-1-.49-2.33-1.11-1.32-.61-3.01-1.1-1.69-.49-3.99-.49-3.58 0-5.61 1.52-2.04 1.52-2.04 3.97 0 1.62 1.06 2.72 1.05 1.1 2.79 1.94 1.74.83 3.94 1.49 2.21.66 4.49 1.44 2.28.79 4.48 1.79 2.21 1.01 3.95 2.55 1.74 1.54 2.79 3.7t1.05 5.19q0 3.63-1.3 6.69-1.29 3.07-3.84 5.3-2.55 2.22-6.3 3.47t-8.65 1.25q-2.59 0-5.07-.46-2.47-.47-4.75-1.3-2.28-.83-4.22-1.96-1.93-1.13-3.4-2.45l2.79-4.61q.54-.83 1.28-1.27.73-.44 1.86-.44 1.12 0 2.13.64 1 .63 2.33 1.37 1.32.73 3.11 1.37 1.79.64 4.53.64 2.16 0 3.7-.52 1.54-.51 2.55-1.34 1-.84 1.47-1.94.46-1.1.46-2.28 0-1.76-1.05-2.89-1.05-1.13-2.79-1.96-1.74-.83-3.97-1.49-2.23-.67-4.56-1.45-2.33-.78-4.56-1.84-2.23-1.05-3.96-2.67-1.74-1.62-2.8-3.97-1.05-2.35-1.05-5.68 0-3.09 1.22-5.88 1.23-2.79 3.61-4.88 2.37-2.08 5.92-3.33 3.56-1.25 8.21-1.25 5.2 0 9.46 1.72 4.26 1.71 7.1 4.5Zm36.21 31.85v-8.47q-5.24.24-8.82.9-3.57.67-5.73 1.69-2.15 1.03-3.09 2.41-.93 1.37-.93 2.99 0 3.18 1.89 4.55 1.89 1.37 4.92 1.37 3.73 0 6.45-1.34 2.72-1.35 5.31-4.1Zm-25.57-26.41-2.16-3.87q8.67-7.94 20.87-7.94 4.41 0 7.89 1.45 3.48 1.45 5.88 4.02 2.4 2.57 3.65 6.15 1.25 3.57 1.25 7.84v31.75h-5.48q-1.72 0-2.65-.51-.93-.52-1.47-2.09l-1.08-3.62q-1.91 1.71-3.72 3.01-1.82 1.3-3.78 2.18-1.96.88-4.18 1.35-2.23.46-4.93.46-3.18 0-5.88-.85-2.69-.86-4.65-2.58-1.96-1.71-3.04-4.26t-1.08-5.93q0-1.91.64-3.8.63-1.88 2.08-3.6 1.44-1.71 3.75-3.23 2.3-1.52 5.66-2.65 3.35-1.12 7.81-1.83 4.46-.72 10.19-.86v-2.94q0-5.05-2.15-7.47-2.16-2.43-6.22-2.43-2.94 0-4.88.69-1.94.68-3.41 1.54-1.47.86-2.67 1.54-1.2.69-2.67.69-1.27 0-2.15-.66-.88-.66-1.42-1.55Zm48.75-33.41h12.1v41.69h2.26q1.22 0 1.93-.31.71-.32 1.45-1.3l12.49-15.44q.79-1.03 1.74-1.56.96-.54 2.48-.54h11.07l-15.63 18.66q-1.66 2.21-3.62 3.39 1.02.73 1.83 1.71t1.55 2.11l16.75 24.4h-10.92q-1.42 0-2.45-.47-1.03-.46-1.72-1.69l-12.84-19.06q-.68-1.12-1.42-1.47-.73-.34-2.2-.34h-2.75v23.03h-12.1v-72.81Zm83.6 22.54h12.1v50.27h-7.4q-2.4 0-3.04-2.21l-.83-4.01q-3.09 3.13-6.81 5.07-3.73 1.93-8.77 1.93-4.12 0-7.28-1.39-3.16-1.4-5.32-3.95-2.15-2.55-3.25-6.05-1.11-3.5-1.11-7.72v-31.94h12.11v31.94q0 4.61 2.13 7.13 2.13 2.53 6.39 2.53 3.14 0 5.88-1.4 2.75-1.4 5.2-3.85v-36.35Zm57.47 5.43-2.74 4.37q-.49.78-1.03 1.1-.54.32-1.37.32-.88 0-1.89-.49-1-.49-2.33-1.11-1.32-.61-3.01-1.1-1.69-.49-3.99-.49-3.58 0-5.61 1.52-2.04 1.52-2.04 3.97 0 1.62 1.06 2.72 1.05 1.1 2.79 1.94 1.74.83 3.94 1.49 2.21.66 4.49 1.44 2.28.79 4.48 1.79 2.21 1.01 3.95 2.55 1.73 1.54 2.79 3.7 1.05 2.16 1.05 5.19 0 3.63-1.3 6.69-1.3 3.07-3.84 5.3-2.55 2.22-6.3 3.47t-8.65 1.25q-2.6 0-5.07-.46-2.47-.47-4.75-1.3-2.28-.83-4.22-1.96-1.93-1.13-3.4-2.45l2.79-4.61q.54-.83 1.27-1.27.74-.44 1.87-.44 1.12 0 2.13.64 1 .63 2.33 1.37 1.32.73 3.11 1.37 1.79.64 4.53.64 2.16 0 3.7-.52 1.54-.51 2.55-1.34 1-.84 1.47-1.94.46-1.1.46-2.28 0-1.76-1.05-2.89-1.05-1.13-2.79-1.96-1.74-.83-3.97-1.49-2.23-.67-4.56-1.45-2.33-.78-4.56-1.84-2.23-1.05-3.97-2.67-1.74-1.62-2.79-3.97t-1.05-5.68q0-3.09 1.22-5.88 1.23-2.79 3.6-4.88 2.38-2.08 5.93-3.33 3.56-1.25 8.21-1.25 5.19 0 9.46 1.72 4.26 1.71 7.1 4.5Zm36.21 31.85v-8.47q-5.24.24-8.82.9-3.57.67-5.73 1.69-2.16 1.03-3.09 2.41-.93 1.37-.93 2.99 0 3.18 1.89 4.55 1.89 1.37 4.92 1.37 3.73 0 6.45-1.34 2.72-1.35 5.31-4.1Zm-25.57-26.41-2.16-3.87q8.67-7.94 20.87-7.94 4.41 0 7.89 1.45 3.48 1.45 5.88 4.02 2.4 2.57 3.65 6.15 1.25 3.57 1.25 7.84v31.75h-5.49q-1.71 0-2.64-.51-.93-.52-1.47-2.09l-1.08-3.62q-1.91 1.71-3.72 3.01-1.82 1.3-3.78 2.18-1.96.88-4.19 1.35-2.23.46-4.92.46-3.19 0-5.88-.85-2.7-.86-4.66-2.58-1.96-1.71-3.03-4.26-1.08-2.55-1.08-5.93 0-1.91.64-3.8.63-1.88 2.08-3.6 1.44-1.71 3.75-3.23 2.3-1.52 5.66-2.65 3.35-1.12 7.81-1.83 4.46-.72 10.19-.86v-2.94q0-5.05-2.15-7.47-2.16-2.43-6.23-2.43-2.94 0-4.87.69-1.94.68-3.41 1.54-1.47.86-2.67 1.54-1.2.69-2.67.69-1.27 0-2.15-.66-.89-.66-1.42-1.55Z"/></svg>