<svg xmlns="http://www.w3.org/2000/svg" width="600" height="400" viewBox="0 0 600 400"><rect width="100%" height="100%" fill="#EFEFEF"/><path fill="#808080" d="M163.025 214.575q.81 0 1.44.63l3.92 4.26q-3.25 4.03-8.01 6.18-4.75 2.14-11.41 2.14-5.96 0-10.71-2.03-4.76-2.04-8.12-5.66-3.37-3.63-5.17-8.66-1.79-5.03-1.79-10.99 0-6.03 1.92-11.05 1.93-5.01 5.42-8.63 3.5-3.63 8.35-5.65 4.84-2.01 10.73-2.01 5.84 0 10.38 1.92 4.53 1.92 7.71 5.03l-3.33 4.63q-.3.44-.76.77-.46.34-1.27.34-.56 0-1.15-.32-.59-.31-1.3-.77-.7-.47-1.62-1.02-.93-.56-2.15-1.02-1.22-.46-2.83-.78-1.61-.31-3.72-.31-3.59 0-6.57 1.28-2.98 1.27-5.12 3.7-2.15 2.42-3.33 5.92-1.19 3.49-1.19 7.97 0 4.51 1.28 8.03 1.28 3.51 3.46 5.92 2.18 2.4 5.14 3.68 2.96 1.28 6.37 1.28 2.03 0 3.68-.23 1.65-.22 3.03-.7 1.39-.48 2.63-1.24t2.46-1.87q.37-.33.78-.53.4-.21.85-.21Zm27.56-25.93q4.22 0 7.68 1.37 3.46 1.36 5.92 3.88 2.46 2.52 3.79 6.14 1.34 3.63 1.34 8.11 0 4.51-1.34 8.14-1.33 3.62-3.79 6.17-2.46 2.56-5.92 3.93-3.46 1.36-7.68 1.36-4.25 0-7.73-1.36-3.48-1.37-5.94-3.93-2.46-2.55-3.81-6.17-1.35-3.63-1.35-8.14 0-4.48 1.35-8.11 1.35-3.62 3.81-6.14 2.46-2.52 5.94-3.88 3.48-1.37 7.73-1.37Zm0 32.08q4.74 0 7.01-3.19 2.28-3.18 2.28-9.32 0-6.14-2.28-9.36-2.27-3.22-7.01-3.22-4.81 0-7.12 3.24-2.31 3.23-2.31 9.34 0 6.1 2.31 9.3 2.31 3.21 7.12 3.21Zm25.83-48.51h9.14v54.98h-9.14v-54.98Zm35.08 16.43q4.21 0 7.67 1.37 3.46 1.36 5.92 3.88 2.46 2.52 3.8 6.14 1.33 3.63 1.33 8.11 0 4.51-1.33 8.14-1.34 3.62-3.8 6.17-2.46 2.56-5.92 3.93-3.46 1.36-7.67 1.36-4.26 0-7.74-1.36-3.48-1.37-5.94-3.93-2.46-2.55-3.81-6.17-1.35-3.63-1.35-8.14 0-4.48 1.35-8.11 1.35-3.62 3.81-6.14 2.46-2.52 5.94-3.88 3.48-1.37 7.74-1.37Zm0 32.08q4.73 0 7.01-3.19 2.27-3.18 2.27-9.32 0-6.14-2.27-9.36-2.28-3.22-7.01-3.22-4.81 0-7.13 3.24-2.31 3.23-2.31 9.34 0 6.1 2.31 9.3 2.32 3.21 7.13 3.21Zm50.94-27.38-2.07 3.29q-.37.59-.77.83-.41.24-1.04.24-.67 0-1.43-.37-.75-.37-1.75-.83-1-.46-2.28-.83-1.27-.37-3.01-.37-2.7 0-4.24 1.14-1.54 1.15-1.54 3 0 1.22.8 2.05.8.84 2.11 1.47 1.31.62 2.98 1.12 1.66.5 3.38 1.09 1.72.6 3.39 1.36 1.66.75 2.98 1.92 1.31 1.17 2.11 2.79.79 1.63.79 3.93 0 2.73-.98 5.05-.98 2.31-2.9 3.99-1.93 1.69-4.76 2.63t-6.53.94q-1.96 0-3.83-.35t-3.59-.98q-1.72-.63-3.18-1.48-1.46-.85-2.57-1.85l2.11-3.48q.41-.63.96-.96.56-.33 1.41-.33.85 0 1.61.48.75.48 1.75 1.03 1 .56 2.35 1.04t3.43.48q1.62 0 2.79-.39 1.16-.39 1.92-1.01.76-.63 1.11-1.47.35-.83.35-1.72 0-1.33-.79-2.18-.8-.85-2.11-1.48-1.31-.63-3-1.13-1.68-.5-3.44-1.09-1.76-.59-3.44-1.39-1.68-.79-3-2.01-1.31-1.22-2.11-3-.79-1.78-.79-4.29 0-2.33.92-4.44.93-2.11 2.72-3.68 1.8-1.58 4.48-2.52 2.68-.94 6.2-.94 3.92 0 7.14 1.29 3.22 1.3 5.36 3.41Zm32.53 0-2.07 3.29q-.37.59-.78.83-.41.24-1.04.24-.66 0-1.42-.37-.76-.37-1.76-.83-1-.46-2.28-.83-1.27-.37-3.01-.37-2.7 0-4.24 1.14-1.53 1.15-1.53 3 0 1.22.79 2.05.8.84 2.11 1.47 1.32.62 2.98 1.12 1.67.5 3.39 1.09 1.72.6 3.38 1.36 1.67.75 2.98 1.92t2.11 2.79q.79 1.63.79 3.93 0 2.73-.98 5.05-.98 2.31-2.9 3.99-1.92 1.69-4.76 2.63-2.83.94-6.53.94-1.96 0-3.83-.35-1.86-.35-3.58-.98t-3.19-1.48q-1.46-.85-2.57-1.85l2.11-3.48q.41-.63.96-.96.56-.33 1.41-.33.85 0 1.61.48.76.48 1.76 1.03 1 .56 2.35 1.04t3.42.48q1.63 0 2.79-.39 1.17-.39 1.93-1.01.75-.63 1.11-1.47.35-.83.35-1.72 0-1.33-.8-2.18-.79-.85-2.11-1.48-1.31-.63-2.99-1.13-1.69-.5-3.45-1.09-1.75-.59-3.44-1.39-1.68-.79-2.99-2.01-1.32-1.22-2.11-3-.8-1.78-.8-4.29 0-2.33.93-4.44.92-2.11 2.72-3.68 1.79-1.58 4.47-2.52 2.69-.94 6.2-.94 3.92 0 7.14 1.29 3.22 1.3 5.37 3.41Zm14.5 10.5h17.24q0-1.77-.5-3.35-.5-1.57-1.49-2.75-1-1.19-2.54-1.87-1.53-.68-3.57-.68-3.96 0-6.23 2.25-2.28 2.26-2.91 6.4Zm23.31 5.52h-23.49q.22 2.92 1.03 5.05.82 2.12 2.15 3.51 1.33 1.39 3.16 2.07 1.83.69 4.05.69 2.22 0 3.83-.52 1.61-.52 2.81-1.15 1.21-.63 2.11-1.14.91-.52 1.76-.52 1.15 0 1.7.85l2.63 3.33q-1.52 1.78-3.4 2.98-1.89 1.2-3.94 1.92-2.06.72-4.19 1.02-2.12.29-4.12.29-3.96 0-7.36-1.31-3.41-1.31-5.92-3.88-2.52-2.57-3.96-6.37-1.45-3.79-1.45-8.78 0-3.89 1.26-7.31 1.26-3.42 3.61-5.96 2.35-2.53 5.73-4.01 3.39-1.48 7.65-1.48 3.58 0 6.62 1.14 3.03 1.15 5.22 3.35 2.18 2.2 3.42 5.4 1.24 3.2 1.24 7.31 0 2.07-.45 2.79-.44.73-1.7.73Zm32.56-20.13h9.14v37.96h-5.59q-1.81 0-2.29-1.66l-.63-3.04q-2.33 2.37-5.14 3.83-2.81 1.46-6.63 1.46-3.1 0-5.49-1.05-2.39-1.06-4.01-2.98-1.63-1.92-2.47-4.57-.83-2.65-.83-5.83v-24.12h9.14v24.12q0 3.48 1.61 5.39 1.61 1.9 4.83 1.9 2.37 0 4.44-1.05 2.07-1.06 3.92-2.91v-27.45Zm27.31 37.96h-9.14v-37.96h5.59q1.77 0 2.33 1.66l.59 2.82q1-1.11 2.09-2.04 1.09-.93 2.33-1.59 1.24-.67 2.66-1.06 1.43-.38 3.13-.38 3.59 0 5.9 1.94 2.31 1.94 3.46 5.16.89-1.89 2.22-3.24 1.33-1.35 2.92-2.2 1.6-.85 3.39-1.26 1.79-.4 3.61-.4 3.14 0 5.58.96 2.45.96 4.11 2.81 1.67 1.85 2.54 4.51.87 2.67.87 6.11v24.16h-9.14v-24.16q0-3.63-1.59-5.46-1.6-1.83-4.67-1.83-1.4 0-2.61.48-1.2.48-2.1 1.39-.91.91-1.43 2.27-.52 1.37-.52 3.15v24.16h-9.17v-24.16q0-3.81-1.54-5.55-1.53-1.74-4.49-1.74-2 0-3.72.98-1.72.98-3.2 2.68v27.79Z"/></svg>