<svg xmlns="http://www.w3.org/2000/svg" width="600" height="400" viewBox="0 0 600 400"><rect width="100%" height="100%" fill="#EFEFEF"/><path fill="#808080" d="M153.41 137.865v51.51h5.36q3.23 0 5.35-.89 2.13-.9 3.66-2.85l33.91-42.93q2.13-2.72 4.47-3.78 2.33-1.06 5.9-1.06h19.72l-41.39 51.08q-3.66 4.68-7.57 6.63 2.81 1.02 5.06 2.85 2.25 1.83 4.29 4.8l42.67 57.55H214.7q-4.08 0-6.08-1.15t-3.36-3.35l-34.76-45.4q-1.62-2.29-3.74-3.23-2.13-.93-6.12-.93h-7.23v54.06h-22.86v-122.91h22.86Zm144.5 35.7h21v87.21h-12.84q-4.16 0-5.27-3.83l-1.44-6.96q-5.36 5.43-11.82 8.79-6.46 3.36-15.21 3.36-7.14 0-12.62-2.42-5.49-2.43-9.23-6.85t-5.65-10.49q-1.91-6.08-1.91-13.39v-55.42h20.99v55.42q0 7.99 3.7 12.37 3.7 4.37 11.09 4.37 5.44 0 10.2-2.42 4.76-2.42 9.01-6.67v-63.07Zm70.81 88.57q-11.39 0-17.47-6.42-6.08-6.42-6.08-17.72v-48.7h-8.92q-1.7 0-2.89-1.11-1.19-1.11-1.19-3.32v-8.32l14.02-2.3 4.42-23.8q.43-1.7 1.62-2.64 1.19-.93 3.06-.93h10.88v27.45h23.29v14.97h-23.29v47.25q0 4.08 2 6.38 1.99 2.29 5.48 2.29 1.95 0 3.27-.46 1.32-.47 2.3-.98.97-.51 1.74-.98.76-.47 1.53-.47.93 0 1.53.47.59.47 1.27 1.4l6.29 10.2q-4.59 3.83-10.54 5.78-5.95 1.96-12.32 1.96Zm80.24-23.89v-14.7q-9.1.43-15.3 1.57-6.2 1.15-9.94 2.93-3.75 1.79-5.36 4.17-1.62 2.38-1.62 5.18 0 5.53 3.28 7.91 3.27 2.38 8.54 2.38 6.46 0 11.18-2.34t9.22-7.1Zm-44.37-45.81-3.74-6.72q15.04-13.77 36.21-13.77 7.65 0 13.68 2.51 6.04 2.51 10.21 6.97 4.16 4.46 6.33 10.67 2.17 6.2 2.17 13.6v55.08h-9.53q-2.97 0-4.59-.89-1.61-.9-2.54-3.61l-1.87-6.29q-3.32 2.97-6.46 5.22-3.15 2.25-6.55 3.78-3.4 1.53-7.27 2.34-3.87.81-8.54.81-5.52 0-10.2-1.49t-8.07-4.46q-3.41-2.98-5.28-7.4-1.86-4.42-1.86-10.28 0-3.32 1.1-6.59t3.61-6.25q2.51-2.97 6.51-5.61 3.99-2.63 9.81-4.58 5.83-1.96 13.56-3.19 7.74-1.24 17.68-1.49v-5.1q0-8.76-3.74-12.96-3.74-4.21-10.8-4.21-5.09 0-8.45 1.19-3.36 1.19-5.91 2.68-2.55 1.48-4.63 2.68-2.08 1.18-4.63 1.18-2.22 0-3.75-1.14-1.53-1.15-2.46-2.68Z"/></svg>