<svg xmlns="http://www.w3.org/2000/svg" width="600" height="400" viewBox="0 0 600 400"><rect width="100%" height="100%" fill="#EFEFEF"/><path fill="#808080" d="M130.92 198.71h5.04q2.28 0 3.97-.57 1.7-.57 2.79-1.57 1.1-1.01 1.64-2.39.54-1.38.54-3.03 0-3.3-2.18-5.07-2.17-1.77-6.64-1.77h-5.16v14.4Zm14.94 6.72 10.86 16.02h-7.29q-2.07 0-3-1.62l-9.12-13.89q-.51-.78-1.13-1.11-.61-.33-1.81-.33h-3.45v16.95h-8.07v-43.38h13.23q4.41 0 7.57.92 3.17.91 5.19 2.56 2.03 1.65 2.99 3.95.96 2.29.96 5.05 0 2.19-.65 4.14-.64 1.95-1.86 3.54-1.21 1.59-3 2.79-1.78 1.2-4.06 1.89.78.45 1.44 1.07.66.61 1.2 1.45Zm28.02-15.24q3.42 0 6.22 1.11 2.81 1.11 4.8 3.15 2 2.04 3.08 4.98 1.08 2.94 1.08 6.57 0 3.66-1.08 6.6-1.08 2.94-3.08 5.01-1.99 2.07-4.8 3.18-2.8 1.11-6.22 1.11-3.45 0-6.27-1.11-2.82-1.11-4.82-3.18-1.99-2.07-3.09-5.01-1.09-2.94-1.09-6.6 0-3.63 1.09-6.57 1.1-2.94 3.09-4.98 2-2.04 4.82-3.15 2.82-1.11 6.27-1.11Zm0 26.01q3.84 0 5.68-2.58 1.85-2.58 1.85-7.56 0-4.98-1.85-7.59-1.84-2.61-5.68-2.61-3.9 0-5.78 2.63-1.87 2.62-1.87 7.57t1.87 7.55q1.88 2.59 5.78 2.59Zm28.26 5.25h-7.41v-30.78h4.53q1.44 0 1.89 1.35l.48 2.28q.81-.9 1.69-1.65.89-.75 1.89-1.29 1.01-.54 2.16-.86 1.16-.31 2.54-.31 2.91 0 4.78 1.58 1.88 1.57 2.81 4.18.72-1.53 1.8-2.63 1.08-1.09 2.37-1.78t2.74-1.02q1.46-.33 2.93-.33 2.55 0 4.53.78 1.98.78 3.33 2.28 1.35 1.5 2.05 3.66.71 2.16.71 4.95v19.59h-7.41v-19.59q0-2.94-1.29-4.43-1.29-1.48-3.78-1.48-1.14 0-2.12.39-.97.39-1.71 1.13-.73.73-1.15 1.84-.42 1.11-.42 2.55v19.59h-7.44v-19.59q0-3.09-1.25-4.5-1.24-1.41-3.64-1.41-1.62 0-3.02.8-1.39.79-2.59 2.17v22.53Zm59.1-7.95v-5.19q-3.21.15-5.4.56-2.19.4-3.51 1.03-1.32.63-1.89 1.47-.57.84-.57 1.83 0 1.95 1.15 2.79 1.16.84 3.02.84 2.28 0 3.94-.82 1.67-.83 3.26-2.51Zm-15.66-16.17-1.32-2.37q5.31-4.86 12.78-4.86 2.7 0 4.83.89 2.13.88 3.6 2.46 1.47 1.57 2.23 3.76.77 2.19.77 4.8v19.44h-3.36q-1.05 0-1.62-.32-.57-.31-.9-1.27l-.66-2.22q-1.17 1.05-2.28 1.85-1.11.79-2.31 1.33t-2.57.83q-1.36.28-3.01.28-1.95 0-3.6-.52-1.65-.53-2.85-1.58-1.2-1.05-1.86-2.61-.66-1.56-.66-3.63 0-1.17.39-2.33.39-1.15 1.27-2.2.89-1.05 2.3-1.98 1.41-.93 3.46-1.62 2.06-.69 4.79-1.12 2.73-.44 6.24-.53v-1.8q0-3.09-1.32-4.58-1.32-1.48-3.81-1.48-1.8 0-2.99.42-1.18.42-2.08.95-.9.52-1.64.94-.73.42-1.63.42-.78 0-1.32-.41-.54-.4-.87-.94Zm36.27-5.31.51 2.43q.93-.93 1.96-1.72 1.04-.8 2.19-1.35 1.16-.56 2.48-.88 1.32-.31 2.88-.31 2.52 0 4.47.86 1.95.85 3.25 2.4 1.31 1.54 1.98 3.69.68 2.14.68 4.72v19.59h-7.41v-19.59q0-2.82-1.29-4.36-1.29-1.55-3.93-1.55-1.92 0-3.6.87-1.68.87-3.18 2.37v22.26h-7.41v-30.78h4.53q1.44 0 1.89 1.35Zm55.95-7.53h-19.26v12.84h16.26v6.45h-16.26v17.67h-8.1v-43.38h27.36v6.42Zm19.05 5.7q3.42 0 6.22 1.11 2.81 1.11 4.8 3.15 2 2.04 3.08 4.98 1.08 2.94 1.08 6.57 0 3.66-1.08 6.6-1.08 2.94-3.08 5.01-1.99 2.07-4.8 3.18-2.8 1.11-6.22 1.11-3.45 0-6.27-1.11-2.82-1.11-4.82-3.18-1.99-2.07-3.09-5.01-1.09-2.94-1.09-6.6 0-3.63 1.09-6.57 1.1-2.94 3.09-4.98 2-2.04 4.82-3.15 2.82-1.11 6.27-1.11Zm0 26.01q3.84 0 5.68-2.58 1.85-2.58 1.85-7.56 0-4.98-1.85-7.59-1.84-2.61-5.68-2.61-3.9 0-5.78 2.63-1.87 2.62-1.87 7.57t1.87 7.55q1.88 2.59 5.78 2.59Zm27.39-23.67.45 3.48q1.44-2.76 3.42-4.33 1.98-1.58 4.68-1.58 2.13 0 3.42.93l-.48 5.55q-.15.54-.44.76-.28.23-.76.23-.45 0-1.34-.15-.88-.15-1.72-.15-1.23 0-2.19.36t-1.73 1.03q-.76.68-1.35 1.64-.58.96-1.09 2.19v18.96h-7.41v-30.78h4.35q1.14 0 1.59.4.45.41.6 1.46Zm34.95-1.86h7.41v30.78h-4.53q-1.47 0-1.86-1.35l-.51-2.46q-1.89 1.92-4.17 3.11-2.28 1.18-5.37 1.18-2.52 0-4.46-.86-1.93-.85-3.25-2.41t-2-3.71q-.67-2.14-.67-4.72v-19.56h7.41v19.56q0 2.82 1.3 4.37 1.31 1.54 3.92 1.54 1.92 0 3.6-.86 1.68-.85 3.18-2.35v-22.26Zm22.14 30.78h-7.41v-30.78h4.53q1.44 0 1.89 1.35l.48 2.28q.81-.9 1.69-1.65.89-.75 1.89-1.29 1.01-.54 2.16-.86 1.16-.31 2.54-.31 2.91 0 4.78 1.58 1.88 1.57 2.81 4.18.72-1.53 1.8-2.63 1.08-1.09 2.37-1.78t2.74-1.02q1.46-.33 2.93-.33 2.55 0 4.53.78 1.98.78 3.33 2.28 1.35 1.5 2.05 3.66.71 2.16.71 4.95v19.59h-7.41v-19.59q0-2.94-1.29-4.43-1.29-1.48-3.78-1.48-1.14 0-2.12.39-.97.39-1.71 1.13-.73.73-1.15 1.84-.42 1.11-.42 2.55v19.59h-7.44v-19.59q0-3.09-1.25-4.5-1.24-1.41-3.64-1.41-1.62 0-3.02.8-1.39.79-2.59 2.17v22.53Z"/></svg>