<svg xmlns="http://www.w3.org/2000/svg" width="600" height="400" viewBox="0 0 600 400"><rect width="100%" height="100%" fill="#EFEFEF"/><path fill="#808080" d="M145.44 197.025h11.76q5.32 0 9.27-1.33 3.96-1.33 6.51-3.68 2.56-2.34 3.82-5.56 1.26-3.22 1.26-7.07 0-7.7-5.08-11.83-5.07-4.13-15.5-4.13h-12.04v33.6Zm34.86 15.68 25.34 37.38h-17.01q-4.83 0-7-3.78l-21.28-32.41q-1.19-1.82-2.63-2.59-1.43-.77-4.23-.77h-8.05v39.55h-18.83v-101.22h30.87q10.29 0 17.67 2.13 7.39 2.14 12.11 5.99 4.73 3.85 6.97 9.2 2.24 5.36 2.24 11.8 0 5.11-1.51 9.66-1.5 4.55-4.34 8.26-2.83 3.71-7 6.51-4.16 2.8-9.48 4.41 1.82 1.05 3.36 2.48 1.54 1.44 2.8 3.4Zm65.38-35.56q7.98 0 14.52 2.59 6.55 2.59 11.2 7.35 4.66 4.76 7.18 11.62 2.52 6.86 2.52 15.33 0 8.54-2.52 15.4-2.52 6.86-7.18 11.69-4.65 4.83-11.2 7.42-6.54 2.59-14.52 2.59-8.05 0-14.63-2.59t-11.24-7.42q-4.65-4.83-7.21-11.69-2.55-6.86-2.55-15.4 0-8.47 2.55-15.33 2.56-6.86 7.21-11.62 4.66-4.76 11.24-7.35t14.63-2.59Zm0 60.69q8.96 0 13.26-6.02 4.31-6.02 4.31-17.64 0-11.62-4.31-17.71-4.3-6.09-13.26-6.09-9.1 0-13.48 6.12-4.37 6.13-4.37 17.68t4.37 17.6q4.38 6.06 13.48 6.06Zm65.94 12.25h-17.29v-71.82h10.57q3.36 0 4.41 3.15l1.12 5.32q1.89-2.1 3.96-3.85 2.06-1.75 4.41-3.01 2.34-1.26 5.04-2 2.69-.73 5.91-.73 6.79 0 11.17 3.67 4.37 3.68 6.54 9.77 1.68-3.57 4.2-6.13 2.52-2.55 5.53-4.16 3.01-1.61 6.41-2.38 3.39-.77 6.82-.77 5.95 0 10.57 1.82t7.77 5.32q3.15 3.5 4.8 8.54 1.64 5.04 1.64 11.55v45.71h-17.29v-45.71q0-6.86-3.01-10.33-3.01-3.46-8.82-3.46-2.66 0-4.93.91-2.28.91-3.99 2.62-1.72 1.72-2.7 4.31-.98 2.59-.98 5.95v45.71h-17.36v-45.71q0-7.21-2.9-10.5-2.91-3.29-8.51-3.29-3.78 0-7.03 1.85-3.26 1.86-6.06 5.08v52.57Zm113.61-44.17h32.62q0-3.36-.94-6.34-.95-2.97-2.84-5.21-1.89-2.24-4.79-3.54-2.91-1.29-6.76-1.29-7.49 0-11.79 4.27-4.31 4.27-5.5 12.11Zm44.1 10.43h-44.45q.42 5.53 1.96 9.55 1.54 4.03 4.06 6.65 2.52 2.63 5.99 3.92 3.46 1.3 7.66 1.3t7.25-.98q3.04-.98 5.32-2.17 2.27-1.19 3.99-2.17 1.71-.98 3.32-.98 2.17 0 3.22 1.61l4.97 6.3q-2.87 3.36-6.44 5.63-3.57 2.28-7.45 3.64-3.89 1.37-7.91 1.93-4.03.56-7.81.56-7.49 0-13.93-2.49-6.44-2.48-11.2-7.35-4.76-4.86-7.49-12.04-2.73-7.17-2.73-16.62 0-7.35 2.38-13.83 2.38-6.47 6.83-11.27 4.44-4.79 10.85-7.59 6.4-2.8 14.45-2.8 6.79 0 12.53 2.17 5.74 2.17 9.87 6.33 4.13 4.17 6.48 10.22 2.34 6.06 2.34 13.83 0 3.92-.84 5.28-.84 1.37-3.22 1.37Z"/></svg>