<svg xmlns="http://www.w3.org/2000/svg" width="600" height="400" viewBox="0 0 600 400"><rect width="100%" height="100%" fill="#EFEFEF"/><path fill="#808080" d="m172.345 162.54-3.41 6.48q-.61 1.07-1.3 1.55-.69.49-1.71.49-1.07 0-2.32-.79-1.25-.79-2.99-1.76-1.73-.97-4.05-1.76t-5.48-.79q-2.86 0-5 .69-2.14.68-3.6 1.91-1.45 1.22-2.16 2.93-.72 1.71-.72 3.75 0 2.6 1.46 4.33 1.45 1.74 3.85 2.96 2.39 1.23 5.45 2.19 3.06.97 6.28 2.07 3.21 1.1 6.27 2.55 3.06 1.45 5.46 3.67 2.39 2.22 3.85 5.43 1.45 3.22 1.45 7.81 0 4.99-1.71 9.36-1.71 4.36-5 7.59-3.29 3.24-8.03 5.1-4.74 1.87-10.86 1.87-3.52 0-6.94-.69-3.41-.69-6.55-1.97-3.14-1.27-5.89-3.06-2.76-1.78-4.9-3.97l4.03-6.58q.51-.72 1.33-1.2.81-.49 1.73-.49 1.28 0 2.76 1.05 1.47 1.04 3.51 2.32 2.04 1.27 4.77 2.32 2.73 1.05 6.56 1.05 5.86 0 9.07-2.78 3.22-2.78 3.22-7.99 0-2.9-1.46-4.74-1.45-1.83-3.85-3.08-2.39-1.25-5.45-2.12-3.06-.87-6.23-1.89-3.16-1.02-6.22-2.45-3.06-1.42-5.45-3.72-2.4-2.29-3.85-5.74-1.46-3.44-1.46-8.49 0-4.03 1.61-7.85 1.6-3.83 4.66-6.78 3.06-2.96 7.55-4.75 4.49-1.78 10.3-1.78 6.53 0 12.04 2.04 5.51 2.04 9.38 5.71Zm23.87-8.98v29.07q3.06-2.85 6.73-4.64 3.68-1.78 8.62-1.78 4.29 0 7.6 1.45 3.32 1.45 5.54 4.08 2.21 2.63 3.36 6.27 1.15 3.65 1.15 8.04v33.3h-12.6v-33.3q0-4.8-2.19-7.42-2.19-2.63-6.68-2.63-3.27 0-6.12 1.48-2.86 1.48-5.41 4.03v37.84h-12.59v-75.79h12.59Zm45.34 23.46h12.65v52.33h-12.65v-52.33Zm14.38-15.25q0 1.64-.66 3.06-.66 1.43-1.76 2.5t-2.57 1.71q-1.48.64-3.17.64-1.63 0-3.08-.64-1.46-.64-2.53-1.71-1.07-1.07-1.7-2.5-.64-1.42-.64-3.06 0-1.68.64-3.16.63-1.48 1.7-2.55 1.07-1.07 2.53-1.71 1.45-.63 3.08-.63 1.69 0 3.17.63 1.47.64 2.57 1.71 1.1 1.07 1.76 2.55.66 1.48.66 3.16Zm23.72 30.55v23.46q2.14 2.6 4.67 3.68 2.52 1.07 5.32 1.07 2.91 0 5.23-1.05 2.32-1.04 3.95-3.26 1.64-2.22 2.5-5.66.87-3.45.87-8.24 0-8.62-2.86-12.47-2.85-3.85-8.21-3.85-3.62 0-6.32 1.66-2.7 1.65-5.15 4.66Zm0-38.76v29.89q3.16-3.32 7.01-5.28 3.85-1.96 8.8-1.96 4.54 0 8.18 1.78 3.65 1.79 6.23 5.13 2.57 3.34 3.95 8.08 1.38 4.74 1.38 10.66 0 6.38-1.59 11.58-1.58 5.2-4.51 8.9-2.93 3.69-7.06 5.73-4.13 2.05-9.18 2.05-2.45 0-4.44-.49-1.99-.48-3.67-1.35-1.68-.87-3.09-2.12-1.4-1.25-2.67-2.78l-.57 3.52q-.3 1.33-1.04 1.89-.74.56-2.02.56h-8.31v-75.79h12.6Zm77.77 23.46h12.6v52.33h-7.7q-2.5 0-3.16-2.3l-.87-4.18q-3.21 3.27-7.09 5.28-3.87 2.02-9.13 2.02-4.28 0-7.57-1.46-3.29-1.45-5.53-4.1-2.25-2.66-3.4-6.3-1.14-3.65-1.14-8.03v-33.26h12.59v33.26q0 4.79 2.22 7.42 2.22 2.62 6.66 2.62 3.26 0 6.12-1.45 2.85-1.45 5.4-4v-37.85Zm62.48 0h10.1l-28.51 66.71q-.56 1.33-1.46 2.02-.89.69-2.72.69h-9.39l9.79-21.02-21.16-48.4h11.07q1.48 0 2.32.72.84.71 1.25 1.63l11.11 27.13q.56 1.38.95 2.76.38 1.37.74 2.8.46-1.43.92-2.83.45-1.4 1.02-2.78l10.5-27.08q.41-1.02 1.35-1.68.95-.67 2.12-.67Zm44.01 38.81v-8.82q-5.45.26-9.18.95-3.72.68-5.96 1.75-2.25 1.08-3.22 2.5-.97 1.43-.97 3.11 0 3.32 1.97 4.75 1.96 1.43 5.12 1.43 3.88 0 6.71-1.41 2.83-1.4 5.53-4.26Zm-26.62-27.48-2.24-4.03q9.02-8.27 21.72-8.27 4.59 0 8.21 1.51 3.62 1.5 6.12 4.18 2.5 2.68 3.8 6.4 1.3 3.73 1.3 8.16v33.05h-5.71q-1.78 0-2.75-.54-.97-.53-1.53-2.16l-1.12-3.78q-1.99 1.79-3.88 3.14t-3.93 2.27q-2.04.92-4.36 1.4-2.32.49-5.12.49-3.32 0-6.12-.9-2.81-.89-4.85-2.67-2.04-1.79-3.16-4.44-1.12-2.65-1.12-6.17 0-1.99.66-3.95.66-1.97 2.17-3.75 1.5-1.79 3.9-3.37t5.89-2.75q3.49-1.18 8.13-1.92 4.64-.74 10.61-.89v-3.06q0-5.25-2.24-7.78-2.25-2.52-6.48-2.52-3.06 0-5.07.71-2.02.72-3.55 1.61-1.53.89-2.78 1.61-1.25.71-2.78.71-1.32 0-2.24-.69-.92-.69-1.48-1.6Z"/></svg>