<svg xmlns="http://www.w3.org/2000/svg" width="600" height="400" viewBox="0 0 600 400"><rect width="100%" height="100%" fill="#EFEFEF"/><path fill="#808080" d="M173.535 238.33q5.77 0 10.32-1.92 4.56-1.93 7.66-5.4 3.11-3.48 4.78-8.44 1.66-4.96 1.66-11.1v-64.08h19.91v64.08q0 9.55-3.07 17.65-3.07 8.1-8.81 13.98-5.73 5.89-13.95 9.18-8.21 3.29-18.5 3.29-10.36 0-18.57-3.29-8.22-3.29-13.95-9.18-5.74-5.88-8.81-13.98-3.07-8.1-3.07-17.65v-64.08h19.91v64.01q0 6.14 1.66 11.1 1.67 4.95 4.81 8.47 3.15 3.51 7.7 5.44 4.55 1.92 10.32 1.92Zm82.22-37.66v34.04q3.1 3.77 6.77 5.32 3.66 1.56 7.73 1.56 4.22 0 7.58-1.52 3.37-1.52 5.74-4.73 2.37-3.22 3.63-8.22 1.25-4.99 1.25-11.95 0-12.51-4.14-18.09-4.14-5.59-11.91-5.59-5.26 0-9.18 2.41-3.92 2.4-7.47 6.77Zm0-56.24v43.36q4.58-4.81 10.17-7.66 5.59-2.85 12.77-2.85 6.58 0 11.87 2.59 5.29 2.59 9.03 7.44 3.74 4.85 5.74 11.73 1.99 6.88 1.99 15.46 0 9.25-2.29 16.8-2.29 7.55-6.55 12.92-4.25 5.36-10.25 8.32-5.99 2.96-13.32 2.96-3.55 0-6.44-.7-2.88-.71-5.32-1.96-2.45-1.26-4.48-3.08-2.04-1.81-3.89-4.03l-.81 5.11q-.44 1.92-1.52 2.74-1.07.81-2.92.81h-12.06V144.43h18.28Zm112.85 34.04h18.27v75.92h-11.17q-3.63 0-4.59-3.33l-1.26-6.07q-4.66 4.74-10.28 7.66-5.63 2.92-13.25 2.92-6.21 0-10.99-2.1-4.77-2.11-8.03-5.96-3.25-3.85-4.92-9.14-1.66-5.29-1.66-11.66v-48.24h18.28v48.24q0 6.96 3.21 10.77 3.22 3.81 9.66 3.81 4.74 0 8.88-2.11 4.14-2.11 7.85-5.81v-54.9Zm83.99 53.42v-34.04q-3.11-3.77-6.78-5.32-3.66-1.56-7.88-1.56-4.14 0-7.47 1.56-3.33 1.55-5.7 4.7-2.37 3.14-3.63 7.99-1.25 4.84-1.25 11.43 0 6.66 1.07 11.29 1.07 4.62 3.07 7.54 2 2.93 4.89 4.22 2.88 1.3 6.43 1.3 5.7 0 9.7-2.37 3.99-2.37 7.55-6.74Zm0-87.46h18.27v109.96h-11.17q-3.63 0-4.59-3.33l-1.55-7.33q-4.59 5.26-10.55 8.51-5.96 3.26-13.87 3.26-6.22 0-11.4-2.59-5.18-2.59-8.92-7.51-3.73-4.92-5.77-12.17-2.03-7.26-2.03-16.58 0-8.44 2.29-15.69 2.3-7.25 6.59-12.58t10.28-8.32q6-3 13.47-3 6.36 0 10.88 2 4.51 2 8.07 5.4v-40.03Z"/></svg>