<svg xmlns="http://www.w3.org/2000/svg" width="600" height="400" viewBox="0 0 600 400"><rect width="100%" height="100%" fill="#EFEFEF"/><path fill="#808080" d="M191.295 157.995h12.8l-34.45 85.31h-14.34l-34.46-85.31h12.75q2.06 0 3.36 1 1.3 1 1.95 2.59l20.12 52.04q1 2.54 1.91 5.58.92 3.04 1.74 6.34.71-3.3 1.54-6.34.82-3.04 1.83-5.58l20-52.04q.47-1.35 1.86-2.47 1.38-1.12 3.39-1.12Zm30.86 48.08h27.49q0-2.83-.8-5.34-.79-2.51-2.39-4.39-1.59-1.89-4.04-2.98-2.45-1.1-5.69-1.1-6.31 0-9.94 3.6t-4.63 10.21Zm37.17 8.79h-37.47q.36 4.66 1.65 8.06 1.3 3.39 3.43 5.6 2.12 2.21 5.04 3.3 2.92 1.1 6.46 1.1t6.11-.83q2.56-.83 4.48-1.83 1.92-1 3.36-1.83 1.45-.82 2.81-.82 1.83 0 2.71 1.35l4.19 5.31q-2.42 2.83-5.43 4.75t-6.28 3.07q-3.28 1.15-6.67 1.62-3.39.48-6.58.48-6.31 0-11.74-2.1-5.43-2.09-9.44-6.19-4.01-4.11-6.31-10.15-2.3-6.05-2.3-14.02 0-6.19 2-11.65 2.01-5.46 5.76-9.5 3.74-4.04 9.14-6.4 5.4-2.36 12.18-2.36 5.73 0 10.57 1.83 4.83 1.83 8.31 5.34 3.49 3.51 5.46 8.61 1.98 5.11 1.98 11.66 0 3.3-.71 4.45-.71 1.15-2.71 1.15Zm26.96-29.44 1 4.78q1.83-1.83 3.87-3.39 2.03-1.57 4.3-2.66 2.28-1.09 4.87-1.71 2.6-.62 5.67-.62 4.95 0 8.79 1.68 3.83 1.68 6.4 4.72 2.56 3.04 3.89 7.26t1.33 9.29v38.53h-14.57v-38.53q0-5.54-2.54-8.58t-7.73-3.04q-3.78 0-7.08 1.71-3.3 1.71-6.25 4.66v43.78h-14.58v-60.53h8.91q2.83 0 3.72 2.65Zm54.4-2.65h14.63v60.53h-14.63v-60.53Zm16.64-17.65q0 1.89-.77 3.54-.77 1.66-2.04 2.9-1.27 1.23-2.98 1.97t-3.65.74q-1.89 0-3.57-.74-1.69-.74-2.92-1.97-1.24-1.24-1.98-2.9-.74-1.65-.74-3.54 0-1.94.74-3.65t1.98-2.95q1.23-1.24 2.92-1.98 1.68-.74 3.57-.74 1.94 0 3.65.74t2.98 1.98q1.27 1.24 2.04 2.95.77 1.71.77 3.65Zm60.06 25.14-3.84 5.31q-.65.82-1.27 1.3-.62.47-1.8.47-1.12 0-2.18-.68t-2.54-1.53q-1.47-.86-3.51-1.54-2.03-.68-5.04-.68-3.84 0-6.73 1.39-2.89 1.39-4.81 3.98-1.91 2.6-2.86 6.29-.94 3.68-.94 8.34 0 4.84 1.03 8.62 1.03 3.77 2.98 6.34t4.72 3.9q2.77 1.32 6.26 1.32 3.48 0 5.63-.85 2.15-.86 3.63-1.89 1.47-1.03 2.57-1.89 1.09-.85 2.44-.85 1.77 0 2.66 1.35l4.19 5.31q-2.42 2.83-5.25 4.75-2.84 1.92-5.87 3.07-3.04 1.15-6.26 1.62-3.21.48-6.4.48-5.6 0-10.56-2.1-4.96-2.09-8.67-6.11-3.72-4.01-5.87-9.82-2.16-5.81-2.16-13.25 0-6.66 1.92-12.36 1.92-5.69 5.63-9.85 3.72-4.16 9.21-6.52 5.49-2.36 12.62-2.36 6.79 0 11.89 2.18 5.11 2.19 9.18 6.26Zm21.18 15.81h27.49q0-2.83-.79-5.34-.8-2.51-2.39-4.39-1.6-1.89-4.04-2.98-2.45-1.1-5.7-1.1-6.31 0-9.94 3.6t-4.63 10.21Zm37.17 8.79h-37.47q.36 4.66 1.66 8.06 1.29 3.39 3.42 5.6 2.12 2.21 5.04 3.3 2.92 1.1 6.46 1.1t6.11-.83q2.57-.83 4.48-1.83 1.92-1 3.37-1.83 1.44-.82 2.8-.82 1.83 0 2.71 1.35l4.19 5.31q-2.42 2.83-5.43 4.75t-6.28 3.07q-3.27 1.15-6.67 1.62-3.39.48-6.58.48-6.31 0-11.74-2.1-5.42-2.09-9.44-6.19-4.01-4.11-6.31-10.15-2.3-6.05-2.3-14.02 0-6.19 2.01-11.65 2-5.46 5.75-9.5 3.74-4.04 9.14-6.4 5.4-2.36 12.19-2.36 5.72 0 10.56 1.83 4.84 1.83 8.32 5.34 3.48 3.51 5.45 8.61 1.98 5.11 1.98 11.66 0 3.3-.71 4.45-.71 1.15-2.71 1.15Z"/></svg>